<?xml version="1.0" encoding="UTF-8" standalone="no"?>
<svg
   width="64"
   height="64"
   version="1.1"
   id="svg4"
   sodipodi:docname="hud_heart.svg"
   inkscape:version="1.4.2 (ebf0e940d0, 2025-05-08)"
   xmlns:inkscape="http://www.inkscape.org/namespaces/inkscape"
   xmlns:sodipodi="http://sodipodi.sourceforge.net/DTD/sodipodi-0.dtd"
   xmlns="http://www.w3.org/2000/svg"
   xmlns:svg="http://www.w3.org/2000/svg">
  <sodipodi:namedview
     id="namedview4"
     pagecolor="#ffffff"
     bordercolor="#000000"
     borderopacity="0.25"
     inkscape:showpageshadow="2"
     inkscape:pageopacity="0.0"
     inkscape:pagecheckerboard="0"
     inkscape:deskcolor="#d1d1d1"
     inkscape:zoom="4.6569611"
     inkscape:cx="-2.6841539"
     inkscape:cy="53.790443"
     inkscape:window-width="1920"
     inkscape:window-height="1052"
     inkscape:window-x="0"
     inkscape:window-y="0"
     inkscape:window-maximized="1"
     inkscape:current-layer="svg4" />
  <defs
     id="defs1" />
  <g
     id="g4"
     transform="matrix(1.4318182,0,0,1.4318182,-13.818182,-13.839043)">
    <path
       stroke="none"
       fill="#ffffff"
       d="m 14,27.65 0.2,2.25 q 0.65,3.55 3.2,5.95 13.65,12.1 14.6,12.15 1.25,0.1 14.6,-12.15 2.55,-2.4 3.2,-5.95 L 50,27.65 Q 50,22.9 46.75,19.5 L 46.6,19.35 Q 43.3,16.2 38.5,16 l -2.15,0.2 Q 33.85,16.6 32,17.9 30.15,16.6 27.65,16.2 L 25.5,16 q -4.8,0.2 -8.1,3.35 L 17.25,19.5 Q 14,22.9 14,27.65 m 18,-14.3 q 1,-0.5 3,-0.9 L 38.7,12 q 5.65,0.3 10.35,4.2 2.1,1.75 3.55,5.05 1.4,3.3 1.4,6.4 l -0.25,3 q -0.9,4.85 -4.4,8.15 H 49.3 Q 34.2,52.65 31.8,52 q -0.7,0.2 -9,-6.5 L 14.65,38.8 Q 12.3,36.6 10.25,30.45 L 10,27.65 q 0,-6.25 4.2,-10.75 3.7,-2.95 5.45,-3.6 2.5,-0.95 6.25,-0.9 4.95,0.4 6.1,0.95"
       id="path1" />
    <path
       stroke="none"
       fill="#353541"
       d="M 14,27.65 Q 14,22.9 17.25,19.5 L 17.4,19.35 Q 20.7,16.2 25.5,16 l 2.15,0.2 q 2.5,0.4 4.35,1.7 1.85,-1.3 4.35,-1.7 L 38.5,16 q 4.8,0.2 8.1,3.35 l 0.15,0.15 Q 50,22.9 50,27.65 L 49.8,29.9 Q 49.15,33.45 46.6,35.85 33.25,48.1 32,48 31.05,47.95 17.4,35.85 14.85,33.45 14.2,29.9 L 14,27.65 M 32,44 43.85,32.95 q 1.6,-1.5 2,-3.75 L 46,27.65 Q 46,24.5 43.85,22.25 41.6,20.1 38.35,20 36,19.9 33.85,21.5 32.75,22.25 32,23.35 31.25,22.25 30.15,21.5 28,19.9 25.65,20 22.4,20.1 20.15,22.25 18,24.5 18,27.65 l 0.15,1.55 q 0.4,2.25 2,3.75 Q 31.6,44 32,44"
       id="path2" />
    <path
       stroke="none"
       fill="#f17575"
       d="m 32,44 q -0.4,0 -11.85,-11.05 -1.6,-1.5 -2,-3.75 L 18,27.65 q 0,-3.15 2.15,-5.4 2.25,-2.15 5.5,-2.25 2.35,-0.1 4.5,1.5 1.1,0.75 1.85,1.85 0.75,-1.1 1.85,-1.85 2.15,-1.6 4.5,-1.5 3.25,0.1 5.5,2.25 2.15,2.25 2.15,5.4 l -0.15,1.55 q -0.4,2.25 -2,3.75 L 32,44 M 21.55,31.5 Q 32,41.6 32,42 32,41.6 42.45,31.5 43.6,30.45 43.85,28.85 L 44,27.65 q 0,-2.3 -1.55,-3.95 L 42.4,23.65 Q 40.7,22.05 38.3,22 h -0.05 q -1.65,-0.05 -3.2,1.1 l -0.1,0.05 q -0.75,0.55 -1.3,1.35 l -1.05,0.75 -0.6,0.1 -0.6,-0.1 q -0.65,-0.2 -1.05,-0.75 l -1.3,-1.35 -0.1,-0.05 Q 27.4,21.95 25.75,22 H 25.7 q -2.4,0.05 -4.1,1.65 L 21.55,23.7 Q 20,25.35 20,27.65 l 0.15,1.2 q 0.25,1.6 1.4,2.65"
       id="path3" />
    <path
       stroke="none"
       fill="#e54341"
       d="M 21.55,31.5 Q 20.4,30.45 20.15,28.85 L 20,27.65 q 0,-2.3 1.55,-3.95 l 0.05,-0.05 q 1.7,-1.6 4.1,-1.65 h 0.05 q 1.65,-0.05 3.2,1.1 l 0.1,0.05 1.3,1.35 q 0.4,0.55 1.05,0.75 l 0.6,0.1 0.6,-0.1 1.05,-0.75 q 0.55,-0.8 1.3,-1.35 l 0.1,-0.05 q 1.55,-1.15 3.2,-1.1 h 0.05 q 2.4,0.05 4.1,1.65 l 0.05,0.05 Q 44,25.35 44,27.65 l -0.15,1.2 Q 43.6,30.45 42.45,31.5 32,41.6 32,42 32,41.6 21.55,31.5"
       id="path4" />
  </g>
</svg>
